<svg id="lmlogo" xmlns="http://www.w3.org/2000/svg" xmlns:xlink="http://www.w3.org/1999/xlink" viewBox="0 0 617 322" shape-rendering="geometricPrecision" text-rendering="geometricPrecision" project-id="e8b13a2886434e259785ebbb45b4dd5a" export-id="e83606a563994183a1e225d97672b46e" cached="false"><defs><linearGradient id="lmlogo-u-gradient-ellipse-fill" x1="0.142831" y1="0.136647" x2="0.5" y2="0.493548" spreadMethod="reflect" gradientUnits="objectBoundingBox" gradientTransform="translate(0 0)"><stop id="lmlogo-u-gradient-ellipse-fill-0" offset="0%" stop-color="#dc1414"/><stop id="lmlogo-u-gradient-ellipse-fill-1" offset="100%" stop-color="#fae10a"/></linearGradient><linearGradient id="lmlogo-u-n-fill" x1="1445.606941" y1="609.595362" x2="1542.98169" y2="877.444176" spreadMethod="pad" gradientUnits="userSpaceOnUse" gradientTransform="translate(0 0)"><stop id="lmlogo-u-n-fill-0" offset="0%" stop-color="#fae119"/><stop id="lmlogo-u-n-fill-1" offset="75.3737%" stop-color="#c80000"/><stop id="lmlogo-u-n-fill-2" offset="100%" stop-color="#320000"/></linearGradient><linearGradient id="lmlogo-u-a2-fill" x1="563.230178" y1="651.987068" x2="644.317336" y2="874.772204" spreadMethod="reflect" gradientUnits="userSpaceOnUse" gradientTransform="translate(0 0)"><stop id="lmlogo-u-a2-fill-0" offset="0%" stop-color="#c80000"/><stop id="lmlogo-u-a2-fill-1" offset="100%" stop-color="#fae119"/></linearGradient><linearGradient id="lmlogo-u-t-fill" x1="559.593606" y1="652.643253" x2="640.093738" y2="873.815549" spreadMethod="reflect" gradientUnits="userSpaceOnUse" gradientTransform="translate(0 0)"><stop id="lmlogo-u-t-fill-0" offset="0%" stop-color="#c80000"/><stop id="lmlogo-u-t-fill-1" offset="100%" stop-color="#fae119"/></linearGradient><linearGradient id="lmlogo-u-n2-fill" x1="1172.347731" y1="655.754903" x2="1252.457285" y2="875.854095" spreadMethod="reflect" gradientUnits="userSpaceOnUse" gradientTransform="translate(0 0)"><stop id="lmlogo-u-n2-fill-0" offset="0%" stop-color="#c80000"/><stop id="lmlogo-u-n2-fill-1" offset="100%" stop-color="#fae119"/></linearGradient><linearGradient id="lmlogo-u-o-fill" x1="539.979252" y1="654.39813" x2="621.399792" y2="878.099226" spreadMethod="reflect" gradientUnits="userSpaceOnUse" gradientTransform="translate(0 0)"><stop id="lmlogo-u-o-fill-0" offset="0%" stop-color="#c80000"/><stop id="lmlogo-u-o-fill-1" offset="100%" stop-color="#fae119"/></linearGradient></defs><ellipse id="lmlogo-u-gradient-ellipse" rx="304.25" ry="155.5" transform="translate(309 162)" fill="url(#lmlogo-u-gradient-ellipse-fill)"/><ellipse id="lmlogo-u-black-ring" rx="299" ry="150.25" transform="translate(309 162)" fill="none" stroke="#000" stroke-width="7"/><path id="lmlogo-u-montana-state" d="M146.919217,88.5C212.726046,99.662206,382.582333,113.860495,484.5,120v163.3L216.919217,262l-40.5-29.223058c-.101405-.153052,4.002453-19.176552,8-38.630094l-42-52.146848l4.5-53.5Z" transform="translate(.080783-.040367)" fill="#381a0c" stroke="#000" stroke-width="2"/><path id="lmlogo-u-a" d="M1685.216311,641.427119h-4.796136q-.70141,7.997687-2.254863,17.302603-3.549981,16.673477-10.903031,48.799092-2.42911,9.209279-8.77193,32.203389-4.772805,17.051355-7.894737,27.118644h64.035088q-3.4-15.7-11.495266-44.260011-2.9-11.3-6.081951-23.050538-3.85563-15.463852-6.684498-29.820333-3.250344-18.026448-5.152676-28.292846ZM1819.89386,843.182031h1.929824q-6.5,21.8-12.982456,30-6.7,6.2-25.541228,7.288135h-63.40614q3.5-8.2,7.017544-20.370166.8-4.3,1.754385-10q.6-5.6.877193-10.7q0-8.6-2.631578-18.6c-.990072-4.533333-1.976222-8.3-2.631579-11.3q-1-4.5-2.631579-7.843393h-80.348246L1637.437719,815.6q-1.5,8.2-1.22807,12.3q0,8.9,3.508772,11.383725q4.4,4.5,15.087719,4.745763h1.929825q-6.4,21.3-14.842686,30.615203-3.999182,5.519466-25.793279,5.825475h-34.4q8.2-14.4,22.3-71.770166q8.4-34.4,13.7-52.5l22.280232-72.113236c5.220059-17.281461,9.422444-29.211765,11.59838-37.619267c1.656439-6.400244,2.155298-9.682538,1.163829-13.226639q-1.437643-3.113064-4.042441-4.465607-1.585835-1.085289-4.7-1.694915-3.727943-.441225-10.948246-.847458q5.124311-14.998044,10.526316-26.132878q5.19937-6.751679,11.403509-8.612885q4.5-1.5,13.718421-2.087115q1.3,0,11.3-.4q9.9-.4,18.9-.4h5.3q13.3,0,18.325439,1.4q4.7,1.1,7.543859,4.029488q3.9,5.2,15.263158,39.670512q4.1,12.3,8.245614,25.2q2.4,7.6,9.473684,30.5q5.5,18,10.877193,35.7q8.2,27.6,16.491228,63.9q8.4,36.1,9.279825,40.7922q2.6,7.2,7.6,10.677966q4.052153,2.848771,12.59386,2.711865Z" transform="matrix(.57 0 0 0.59-429.3395-231.878501)" stroke="#f0c84b" stroke-width="2"/><path id="lmlogo-u-n" d="M1538.903676,732.740544l.000001,78.653665q0,16.4,4.3,22.1q4.3,5.1,17,6.6-5.9,20.7-12.500001,32.846335-6.6,6.2-20.7,6.2l-58.232123.293123q4.3-10.9,6.7-22.8q2.5-11.9,2.5-23.6v-111.2q0-21.5-7.6-32.4-5.690125-7.856532-15.404598-8.138033-14.56293.55202-21.941306,9.185086-4.3,6.4-7.026732,16.283397-2.2,9.7-2.2,23.8v78.276561q0,16.9,1.101083,23.235883q4.5,5.7,16.8,6.8-5.9,20.4-12.7,33.523439-6.6,6.6-20.9,6.6h-51.9q4.3-10.5,6.6-22.4q1-5.3,1.6-11.4.5-6.2.5-12.3v-118.624501q0-14-4.4-18.7-4.3-4.9-15.9-4.9q4.1-19.1,10.8-33.675499q6.8-8,19.5-8l7.4.2l6.3.1q3.9,0,8,0q3.5-.5,7.6-.9t11.5-2.2l-1.7,12.7-1.8,23.989729q10.6-18.214627,25.6-29.371748q10.740429-7.8801,35.5-9.217981q35.2,0,49.003676,21.740544q16.6,21.5,16.6,66.7Z" transform="matrix(.27 0.023622 0 0.47 86.974-191.817075)" fill="url(#lmlogo-u-n-fill)" stroke="#000" stroke-width="6" stroke-miterlimit="10"/><path id="lmlogo-u-a2" d="M1174.3,797.8q0,22.4,10,36.3q9.9,13.7,25.5,13.7q16.2,0,25.8-13.5q9.8-13.7,9.8-37.3q0-22.9-9.4-35.8-9.2-13.1-25.4-13.1-16.6,0-26.5,13.5-9.8,13.3-9.8,36.2Zm71.9,69.1l.5-13.9q-10.1,14.7-25,22.3-14.8,7.6-33.3,7.6-31.7,0-51.4-23.2-19.5-23.5-19.5-61.2q0-38.1,20.7-60.9q20.9-23.1,55.6-23.1q15.6,0,28.9,7.1q13.3,7,21.5,19.3l.6-8l.2-4.7q0-27.7-13.3-40.4-13.1-12.7-41.8-12.7-13.3,0-27.5,2.3-14.1,2.2-27.8,6.9q6.7-16.2,9.6-21.5q3.1-5.5,6.5-8.6q4.6-4.5,17.3-6.8q12.9-2.4,34.2-2.4q50.8,0,73.1,21.7q22.2,21.7,22.2,71.9v78.9q0,18.1,4.1,23.4q4.3,4.9,16.2,4.9-4.6,20.1-12.5,27-7.8,6.6-30.2,6.6-12.3,0-17,.4t-7.6,1q-3,.5-5.7,1.3l1.4-15.2Z" transform="matrix(.27 0.023622 0 0.47 89.527391-192.858)" fill="url(#lmlogo-u-a2-fill)" stroke="#000" stroke-width="6"/><path id="lmlogo-u-t" d="M1049.9,582.9v66.4h19.5q9.8,0,16.6-1.4q6.8-1.3,12.5-4.8-7,25.7-13.9,33.2-6.6,7.2-20.9,7.2h-13.8v135.9q0,15.7,3.1,22.5q3.3,6.6,10.7,6.6q3.4,0,10.2-1.9q6.8-2,9.6-2q4.3,0,7.6,3.2q3.5,2.9,9.9,12.8-13.8,11.4-28.3,17.2-14.2,5.7-28.9,5.7-25.8,0-37.7-15.8t-11.9-49.8v-134.4h-10.3q-5.3,0-10.4,1.2-4.9,1.1-7.2,1.9-.6.2-4.9,2q4.7-22.7,11.1-30.9q6.5-8.4,18.4-8.4h6v-19.1q0-16.2,2.4-21.5q2.3-5.3,9.6-8.8l4.1-1.6q18.9-6.2,36.9-15.4Z" transform="matrix(.27 0.023622 0 0.47 91.076-193.962944)" fill="url(#lmlogo-u-t-fill)" stroke="#000" stroke-width="6"/><path id="lmlogo-u-n2" d="M1538.903676,732.740544l.000001,78.653665q0,16.4,4.3,22.1q4.3,5.1,17,6.6-5.9,20.7-12.500001,32.846335-6.6,6.2-20.7,6.2l-58.232123.293123q4.3-10.9,6.7-22.8q2.5-11.9,2.5-23.6v-111.2q0-21.5-7.6-32.4-5.690125-7.856532-15.404598-8.138033-14.56293.55202-21.941306,9.185086-4.3,6.4-7.026732,16.283397-2.2,9.7-2.2,23.8v78.276561q0,16.9,1.101083,23.235883q4.5,5.7,16.8,6.8-5.9,20.4-12.7,33.523439-6.6,6.6-20.9,6.6h-51.9q4.3-10.5,6.6-22.4q1-5.3,1.6-11.4.5-6.2.5-12.3v-118.624501q0-14-4.4-18.7-4.3-4.9-15.9-4.9q4.1-19.1,10.8-33.675499q6.8-8,19.5-8l7.4.2l6.3.1q3.9,0,8,0q3.5-.5,7.6-.9t11.5-2.2l-1.7,12.7-1.8,23.989729q10.6-18.214627,25.6-29.371748q10.740429-7.8801,35.5-9.217981q35.2,0,49.003676,21.740544q16.6,21.5,16.6,66.7Z" transform="matrix(.27 0.023622 0 0.47-74.526-209.317075)" fill="url(#lmlogo-u-n2-fill)" stroke="#000" stroke-width="6" stroke-miterlimit="10"/><path id="lmlogo-u-m" d="M31.710937,308.07932c4.135995-12.355927,10.594661-55.792323,13.4-85.317765c1.92874-20.29947,4.315542-43.844425,7.268161-67.45313c3.012437-24.086995,6.692161-48.201646,9.167702-68.859116.365157-2.534614.767313-6.100933.564137-9.076045-.20273-2.968587-.646341-4.477745-2.042198-6.57001s-3.852369-3.501757-7.718138-4.223934c-1.82-.34-5.539261-.849965-9.297386-.45c1.527375-6.269727,2.683101-9.321836,5.045919-16.136429c1.178095-2.894226,4.204446-10.011045,5.775608-12.116279c1.547251-2.291937,2.763365-3.926035,4.923521-5.466246c3.8973-2.778811,8.772491-4.419595,12.577344-4.610368h56.624377c-3.308404,6.052345-1.634998,17.889863-.098023,24.844848c1.050422,3.275358,2.192872,9.050774,3.636025,13.954739c2.103284,7.147151,4.184825,13.844077,6.541598,22.063505c3.05376,10.650225,5.588597,21.047216,6.963125,29.841816.463453,2.546524,1.44232,7.552027,1.85322,12.210811.41613,4.709466.882952,10.957241,1.097257,17.129811.219466,6.321226.06547,11.641091.068282,11.744519l1.98018-10.105749l5.227718-25.585142l5.595163-25.065797l5.057794-18.164064c1.989966-6.957176,6.470126-20.331937,9.040278-26.749522.485382-1.22205,1.310807-3.659108,2.654346-6.806017c1.165428-2.941733,2.665001-5.684389,3.644366-7.33473c1.783931-3.006125,3.710596-5.739961,7.284314-7.999505c3.266861-2.065528,5.881316-2.602983,8.91223-3.294824c2.160766-.476658,6.582046-1.119183,10.288851-1.184699h38.264229c-.352715.512157-2.820396,4.096284-5.3,9.634685-1.667825,3.725226-2.31168,10.05155-2.6,14.612865-.238885,3.77924.148338,6.458687.389047,9.171322l19.665881,175.592724c.528201,4.135968,1.337965,7.833122,2.413711,11.315763c1.362416,4.217418,3.199333,9.831975,5.313725,13.632863c1.227066,1.919685,3.233165,4.467575,3.967636,5.228278c1.326781,1.374168,2.321002,1.914514,4.607734,2.585976c1.950992.299302,3.562049.502641,5.242266.464024.094501,4.52911-3.911092,16.173071-6.591814,23.227394-2.653485,5.587399-4.165186,10.328711-9.879412,12.882606-1.242331.621009-3.189718,1.595237-7.267174,2.02-1.210567.126109-4.236344.430874-6.344861.410822h-52.427692c.442567-.869884,3.029923-8.406644,3.614888-9.820194c1.622257-4.085723,3.212029-14.522639,3.389884-20.183051.18346-3.669088.717422-9.968099.461013-17.331735-.433169-12.439871-.623756-28.840428-1.843374-45.851342-.909548-12.686124-2.477006-25.659603-3.15125-37.398328-1.629651-17.371221-3.851954-38.448388-5.604349-57.544186-1.854207-20.205239-2.644817-35.530089-2.87682-44.236943-9.892119,49.716711-12.854697,61.641794-14.358625,67.160044l-9.12021,34.191896c-3.285552,12.464792-11.512072,34.577761-16.619333,44.627025-4.072491,8.011888-4.855097,9.596217-9.702836,16.874497-4.817289,7.232563-11.954827,15.582094-18.813598,19.121543.427191-3.99816,1.262035-7.628269,1.469046-12.495836.261602-6.151194-.412792-13.309865-.590041-14.913142-.298319-3.365342-2.225114-11.173412-3.85359-18.989423-1.265694-6.548879-7.756411-28.699063-12.322368-42.927313-6.189564-20.784355-13.703446-51.084411-18.008595-75.972665-.559041-3.231841-1.673233-12.482272-2.369719-16.647279-1.227933,13.521541-3.570219,46.261421-5.405702,66.83593-3.063376,31.856172-7.623784,80.020612-8.383468,95.800502-.069372,3.184305-.18752,6.880959-.102404,9.827865.105727,3.660494.467835,6.676395.995132,9.101993.736189,3.222433,1.861766,4.795297,2.411925,5.514123c1.545966,2.032247,3.831391,4.069752,6.303093,5.306019c2.119248,1.059981,4.284209,1.148735,6.469434,1.3c1.574317.062021,3.370564.186229,4.92282.2-.288326,3.9324-5.354376,18.604896-8.116236,23.375087-1.288702,2.225803-3.054329,5.217367-4.508738,6.914176-4.792338,5.591056-11.392863,7.801684-17.180902,8.160737h-32.594124Z" transform="translate(-.110937-.37932)" stroke="#f0c84b" stroke-width="2" stroke-miterlimit="20"/><path id="lmlogo-u-o" d="M598.099608,684.443964q-10.889297-.364575-23.977332,17.729362-9.4,21.1-8.681547,60.778586q0,22,1.869722,39.889112q2.1,15.6,6.473449,25.405202q5.58176,15.849315,23.267914,15.594414q10.437695.16122,22.046239-19.089728q9.7-21.3,9.710174-61.510706q0-42.2-8.880422-60.9732-7.274862-17.826294-21.828197-17.823042ZM597.3,644.6q45,0,71.1,31.9q26.2,31.8,26.2,87.7q0,56-26,87.8-26,31.9-71.3,31.9-45.1,0-70.9-31.7-25.7-31.8-25.7-88q0-56.5,25.5-87.9q25.8-31.7,71.1-31.7Z" transform="matrix(.26 0.022747 0 0.47 101.111-194.29227)" fill="url(#lmlogo-u-o-fill)" stroke="#000" stroke-width="6"/><path id="lmlogo-u-e" d="M1173.7,110.1l150.817079-.180074q-4.1,28-14,38.3-10,10.2-34.4,12.5l2-5.3.5-3.5q0-5.1-7.6-7.8-7.4-2.9-22.8-2.9-28.5,0-28.217079,3.880074-5.5,3.7-5.5,15.4v60.6l54.417079-.180074q2.5,0,5.2-.2q2.8-.2,7.3-1q4.7-.8,11.5-2.9-6.4,23.4-13.5,30.2-6.8,6.7-23.6,6.7L1214.5,253.9v77.9q0,12.7,1.8,18.8q1.7,5.8,5.8,8.4q4.3,2.3,12.1,3.9q5.9.7,12,.9q6,0,11.9,0l23.317079-.180074q17.6,0,27.7-1.1q10.2-1.4,17.8-4.5-5.3,26-13.1,33.4t-32,7.4L1143.4,399q3.9-9.2,6.9-21.1q2.3-10.9,2.3-22.5v-180.4q0-16.4-4.9-22.3-4.7-6-18.3-7.8q4.5-20.5,12.7-27.5q8.4-7.3,31.6-7.3Z" transform="matrix(.260357 0.018206 0.003141 0.179973 201.161346 8.273708)" stroke="#d7af4b" stroke-width="6"/><path id="lmlogo-u-l" d="M210.6,110.1h52.8q-4,9.6-6.5,20.3-2.3,10.6-2.3,20.2v181.6q0,20.5,7.2,27q7.4,6.2,21.989591,5.582535q17.7,0,32.8-2.9q15.2-3.1,28.3-9.6-7,28.9-16.2,37.5-9,8.6-33.8,8.6-7,0-11.7-.2Q270.603392,398.056626,266.5,397.8q-12.9,0-21.3-.2-8.2-.4-19.3-.9l-20.8.5-21.6,1.8q4.1-9.2,6.6-20.5t2.5-23.1v-175.5q0-21.3-4.8-27.6-4.7-6.2-18.8-7.8q5.9-20.9,13.5-27.5q7.8-6.9,28.1-6.9Z" transform="matrix(.270928 0.018945 0.003141 0.179973 398.959856 21.706358)" stroke="#d7af4b" stroke-width="6"/><path id="lmlogo-u-t2" d="M718.6,106.2q-8.4,26.4-17.7,34.2-9.4,7.8-31.5,7.8l-5.7-.2-8.6-.2q-17.3,0-21.8,3.5-3.9,3.6-3.9,14.9v167.6q0,19.1,5,25.6q5.3,6.4,19,6.4-5.3,19.9-12.5,26.6-7.2,6.6-25,6.6h-58.4q4.7-9.8,7.2-25q2.8-15.4,2.8-33v-175.6q0-12.1-4.1-15.6-4-3.5-18.4-3.5-27,0-39.9,1.7-12.6,1.6-22,5.5q7-25.2,17.4-34.2q10.3-9.2,32.2-9.2l38.1,1.4q17,0,34.2.6q17.3.4,28.9.6q38.6,0,55.8-1.6q8.6,0,15.8-1.4q7.3-1.3,13.1-3.5Z" transform="matrix(.260357 0.018206 0.003141 0.179973 206.770735 7.099873)" stroke="#f0c84b" stroke-width="6"/><path id="lmlogo-u-t3" d="M718.6,106.2q-8.4,26.4-17.7,34.2-9.4,7.8-31.5,7.8l-5.7-.2-8.6-.2q-17.3,0-21.8,3.5-3.9,3.6-3.9,14.9v167.6q0,19.1,5,25.6q5.3,6.4,19,6.4-5.3,19.9-12.5,26.6-7.2,6.6-25,6.6h-58.4q4.7-9.8,7.2-25q2.8-15.4,2.8-33v-175.6q0-12.1-4.1-15.6-4-3.5-18.4-3.5-27,0-39.9,1.7-12.6,1.6-22,5.5q7-25.2,17.4-34.2q10.3-9.2,32.2-9.2l38.1,1.4q17,0,34.2.6q17.3.4,28.9.6q38.6,0,55.8-1.6q8.6,0,15.8-1.4q7.3-1.3,13.1-3.5Z" transform="matrix(.260357 0.018206 0.003141 0.179973 259.770735 11.599873)" stroke="#f0c84b" stroke-width="6"/><path id="lmlogo-u-i" d="M390.3,354.7v-178.6q0-17.5-4.9-24-4.7-6.6-17.9-8q6.2-21.9,13.2-28.1q7.1-6.3,24.4-6.3h57.1q-2.2,5.3-4.1,11.4-1.8,5.8-3.3,11.9-2.6,12.3-2.6,23.2v176q0,18.9,4.7,25.2q4.9,6.2,18.6,7.6-6.5,22.3-13.1,28.1-6.7,5.9-25.4,5.9h-56.3q4.7-10.7,7.1-22.1q2.5-11.5,2.5-22.2Z" transform="matrix(.260357 0.018206 0.003141 0.179973 208.160336 6.55016)" stroke="#d7af4b" stroke-width="6"/><path id="lmlogo-u-l2" d="M210.6,110.1h52.8q-4,9.6-6.5,20.3-2.3,10.6-2.3,20.2v181.6q0,20.5,7.2,27q7.4,6.2,21.989591,5.582535q17.7,0,32.8-2.9q15.2-3.1,28.3-9.6-7,28.9-16.2,37.5-9,8.6-33.8,8.6-7,0-11.7-.2Q270.603392,398.056626,266.5,397.8q-12.9,0-21.3-.2-8.2-.4-19.3-.9l-20.8.5-21.6,1.8q4.1-9.2,6.6-20.5t2.5-23.1v-175.5q0-21.3-4.8-27.6-4.7-6.2-18.8-7.8q5.9-20.9,13.5-27.5q7.8-6.9,28.1-6.9Z" transform="matrix(.270928 0.018945 0.003141 0.179973 207.659856 5.706358)" stroke="#d7af4b" stroke-width="6"/></svg>
